<?xml version="1.0" encoding="UTF-8" standalone="no"?>
<!-- Created with Inkscape (http://www.inkscape.org/) -->

<svg
   width="205.91982mm"
   height="200.69206mm"
   viewBox="0 0 205.91982 200.69206"
   version="1.1"
   id="svg5"
   xml:space="preserve"
   inkscape:version="1.2.1 (9c6d41e410, 2022-07-14)"
   sodipodi:docname="logo.svg"
   xmlns:inkscape="http://www.inkscape.org/namespaces/inkscape"
   xmlns:sodipodi="http://sodipodi.sourceforge.net/DTD/sodipodi-0.dtd"
   xmlns:xlink="http://www.w3.org/1999/xlink"
   xmlns="http://www.w3.org/2000/svg"
   xmlns:svg="http://www.w3.org/2000/svg"><sodipodi:namedview
     id="namedview7"
     pagecolor="#505050"
     bordercolor="#eeeeee"
     borderopacity="1"
     inkscape:showpageshadow="0"
     inkscape:pageopacity="0"
     inkscape:pagecheckerboard="0"
     inkscape:deskcolor="#505050"
     inkscape:document-units="mm"
     showgrid="false"
     inkscape:zoom="0.64693624"
     inkscape:cx="116.70393"
     inkscape:cy="622.9362"
     inkscape:window-width="2560"
     inkscape:window-height="1369"
     inkscape:window-x="-8"
     inkscape:window-y="-8"
     inkscape:window-maximized="1"
     inkscape:current-layer="layer1" /><defs
     id="defs2"><linearGradient
       inkscape:collect="always"
       id="linearGradient4632"><stop
         style="stop-color:#f8b02b;stop-opacity:1;"
         offset="0"
         id="stop4628" /><stop
         style="stop-color:#f29317;stop-opacity:1;"
         offset="1"
         id="stop4630" /></linearGradient><linearGradient
       inkscape:collect="always"
       xlink:href="#linearGradient4632"
       id="linearGradient4634"
       x1="4.0868087"
       y1="145.76956"
       x2="204.77888"
       y2="145.76956"
       gradientUnits="userSpaceOnUse"
       gradientTransform="rotate(90,104.43285,145.76956)" /></defs><g
     inkscape:label="Layer 1"
     inkscape:groupmode="layer"
     id="layer1"
     transform="translate(-1.4729379,-45.423525)"><path
       style="fill:url(#linearGradient4634);fill-opacity:1;stroke-width:0.264583"
       d="m 2.1380417,145.42009 c 0.41504,0 6.88121,-1.01463 14.3692603,-2.25472 7.48805,-1.24009 15.74983,-2.60733 18.35951,-3.03831 2.60968,-0.43098 4.82518,-0.87487 4.92333,-0.98643 0.0982,-0.11156 0.43922,-1.54027 0.75793,-3.1749 0.31872,-1.63463 1.00523,-4.5336 1.5256,-6.44216 0.92415,-3.38954 0.9346,-3.48137 0.45031,-3.95523 -0.53972,-0.52812 -10.18426,-7.22044 -15.36552,-10.66212 -1.77543,-1.17934 -3.19029,-2.18202 -3.14412,-2.22819 0.0462,-0.0462 4.35629,1.1256 9.57806,2.60392 5.22177,1.47832 10.05108,2.83847 10.7318,3.02255 l 1.23768,0.3347 2.54571,-4.0807 c 1.40014,-2.24438 3.26356,-5.10674 4.14093,-6.36079 l 1.59522,-2.2801 -1.39358,-2.01074 c -3.5453,-5.115368 -14.11235,-20.058732 -14.51871,-20.531577 -0.77145,-0.897694 -0.91838,-1.353704 -0.24541,-0.761672 0.35089,0.308687 1.53095,1.149188 2.62236,1.867786 1.0914,0.718598 5.99489,4.008874 10.89663,7.311726 4.90175,3.302852 9.08437,6.071227 9.29472,6.151946 0.22139,0.08495 2.26862,-1.113547 4.86124,-2.845888 2.46333,-1.645957 5.63115,-3.647492 7.03961,-4.447857 1.5748,-0.89489 2.56225,-1.620242 2.56452,-1.883823 0.002,-0.235735 -0.34219,-1.604954 -0.76493,-3.042708 -1.31918,-4.486539 -4.77154,-17.120419 -4.94392,-18.092218 -0.16138,-0.909838 -0.14679,-0.900581 0.83394,0.529167 3.10315,4.523888 12.77301,17.462499 13.05085,17.462499 0.12614,0 1.34978,-0.344895 2.71922,-0.766434 3.27113,-1.006917 7.57072,-2.050788 9.87832,-2.398297 2.64766,-0.398722 2.96757,-0.491152 3.12564,-0.903095 0.0777,-0.202522 0.51847,-2.495505 0.97946,-5.095512 1.099588,-6.201886 3.535678,-19.566124 4.237768,-23.248119 0.30522,-1.600729 0.73349,-3.979714 0.9517,-5.286634 0.40722,-2.438884 0.62731,-3.118334 0.62731,-1.936583 0,0.665152 0.73912,5.51933 3.55735,23.3628 0.36773,2.328333 0.90996,5.781145 1.20494,7.672916 0.82499,5.290788 0.62543,4.826331 2.20073,5.122143 4.81468,0.904107 7.4201,1.486289 10.4136,2.326917 4.95109,1.390357 4.69504,1.382274 5.45885,0.172323 0.35819,-0.567409 2.95992,-4.300278 5.78162,-8.295266 2.8217,-3.994989 5.40503,-7.710101 5.74072,-8.255804 0.63673,-1.035082 1.0236,-1.326973 0.70137,-0.529167 -0.48997,1.213046 -5.42585,20.393736 -5.42585,21.084661 0,0.183428 1.70725,1.363541 3.79389,2.622473 2.08664,1.258933 5.32046,3.35556 7.18625,4.65917 1.8658,1.30361 3.52206,2.295032 3.68059,2.203158 0.15852,-0.09187 2.55041,-1.721051 5.31531,-3.620399 9.4971,-6.52404 16.63134,-11.265804 16.75858,-11.138569 0.0701,0.07008 -0.0604,0.336497 -0.28997,0.59205 -0.22956,0.255553 -2.3025,3.267864 -4.60654,6.694022 -2.30404,3.426158 -5.49885,8.161168 -7.09957,10.522245 -1.60073,2.36107 -3.02424,4.46183 -3.16335,4.66835 -0.18766,0.27859 0.75579,1.88572 3.65597,6.22784 2.14989,3.2188 4.05392,5.90801 4.23117,5.97603 0.17725,0.068 2.58019,-0.4066 5.33987,-1.05469 4.88766,-1.14785 14.40608,-3.42054 15.73321,-3.75659 0.36759,-0.0931 -1.5e-4,0.24056 -0.82773,0.75098 -3.34201,2.06125 -16.9534,11.41214 -17.0757,11.73085 -0.0724,0.18876 0.29332,2.22615 0.81279,4.52753 0.51947,2.30138 1.15432,5.30245 1.41079,6.66904 l 0.46631,2.48473 5.82083,0.99163 c 3.20146,0.5454 10.88099,1.88666 17.06563,2.98057 6.18463,1.09392 11.8401,2.07827 12.5677,2.18746 l 1.32292,0.19852 -2.38125,0.32807 c -2.51318,0.34625 -7.12941,1.14316 -15.21354,2.62633 -2.69214,0.49392 -7.33557,1.33037 -10.31875,1.85879 -2.98318,0.52841 -6.19408,1.10523 -7.13534,1.28182 l -1.71137,0.32108 -0.83294,4.4896 c -0.45811,2.46928 -1.08697,5.46871 -1.39747,6.6654 -0.3105,1.1967 -0.56455,2.29998 -0.56455,2.45174 0,0.22172 5.19061,3.72346 17.91637,12.08694 0.2597,0.17068 -0.30173,0.0743 -1.24762,-0.21418 -2.64065,-0.80534 -18.88511,-4.72634 -19.58095,-4.72634 -0.25892,0 -0.53314,0.16255 -0.60938,0.36122 -0.0762,0.19867 -1.81538,2.94212 -3.86476,6.09656 -2.04939,3.15444 -3.72616,5.91904 -3.72616,6.14355 0,0.36613 1.20291,2.19449 8.15936,12.40179 2.93993,4.31381 5.62122,8.11623 6.24163,8.85147 l 0.54797,0.64938 -0.58547,-0.3848 c -0.32201,-0.21164 -4.99514,-3.36136 -10.38474,-6.99938 -5.3896,-3.63802 -10.07725,-6.78271 -10.41699,-6.98819 -0.57901,-0.3502 -0.74064,-0.2828 -2.57983,1.07576 -2.89566,2.13895 -7.48958,5.19306 -9.89963,6.58143 -1.66269,0.95784 -2.13374,1.3624 -2.19628,1.88626 -0.0618,0.51796 4.19229,18.23758 5.13519,21.38953 0.10884,0.3638 -1.05606,-1.18401 -2.58864,-3.43958 -1.53259,-2.25557 -4.24387,-6.18464 -6.02506,-8.73125 -1.7812,-2.54662 -3.40899,-4.95763 -3.61732,-5.35781 -0.20832,-0.40019 -0.4227,-0.72761 -0.4764,-0.72761 -0.0537,0 -0.85431,0.23166 -1.77914,0.51479 -3.32112,1.01675 -9.14154,2.38755 -11.86441,2.79427 -1.526,0.22793 -2.84807,0.49938 -2.93791,0.60321 -0.0899,0.10382 -0.54372,2.62955 -1.00859,5.61273 -3.39477,21.7849 -4.52373,29.24813 -4.52373,29.90524 0,0.41536 -0.11906,0.82878 -0.26458,0.91872 -0.14863,0.0919 -0.26459,-0.11791 -0.26459,-0.47865 0,-0.35319 -0.53997,-3.6642 -1.19994,-7.3578 -0.65997,-3.6936 -1.68164,-9.45407 -2.27037,-12.80105 -1.978198,-11.24625 -2.805668,-15.7569 -2.909138,-15.85808 -0.0566,-0.0553 -1.21941,-0.29272 -2.5841,-0.52759 -2.73512,-0.47071 -7.73352,-1.65706 -11.07645,-2.62894 l -2.158,-0.62739 -0.50535,0.56058 c -0.85913,0.95302 -10.94194,14.75121 -12.05639,16.49899 -0.57897,0.908 -1.09986,1.60373 -1.15752,1.54607 -0.0577,-0.0577 0.32144,-1.51494 0.84244,-3.23841 2.32755,-7.69947 5.16504,-18.21877 4.93504,-18.29543 -0.61232,-0.20411 -8.1758,-4.98747 -11.1425,-7.04685 -1.79481,-1.24588 -3.38019,-2.26524 -3.52307,-2.26524 -0.33323,0 -1.26331,0.59255 -11.15402,7.10617 -4.51115,2.97085 -8.89854,5.92906 -9.74976,6.5738 -0.85123,0.64473 -1.59137,1.12855 -1.64477,1.07515 -0.0754,-0.0754 12.44393,-17.7249 15.47303,-21.81353 0.61907,-0.83561 0.61982,-0.84554 0.12425,-1.63932 -0.27422,-0.43925 -1.64054,-2.62077 -3.03628,-4.84784 -1.39573,-2.22707 -2.99804,-4.85289 -3.5607,-5.83516 -0.57842,-1.00979 -1.20034,-1.7824 -1.43106,-1.77781 -0.22442,0.004 -5.16817,1.36615 -10.9861,3.02594 -5.81793,1.6598 -10.60389,2.99198 -10.63546,2.9604 -0.0316,-0.0316 1.03762,-0.7865 2.37597,-1.67763 1.33836,-0.89112 5.52901,-3.72444 9.31255,-6.29628 3.78354,-2.57184 7.05019,-4.77331 7.25922,-4.89217 0.3218,-0.18296 0.27459,-0.57534 -0.3079,-2.55922 -0.77705,-2.64657 -1.58786,-6.17157 -2.08169,-9.05023 -0.18348,-1.06953 -0.46124,-1.98871 -0.61724,-2.04263 -0.156,-0.0539 -2.90302,-0.51383 -6.10448,-1.02202 -3.20145,-0.5082 -11.05958,-1.76674 -17.46249,-2.79677 -6.4029203,-1.03004 -12.3299703,-1.94482 -13.1712303,-2.03287 -1.59681,-0.16712 -2.36330997,-0.61214 -1.05434,-0.61214 z m 49.9262703,6.88922 c 2.25056,18.01628 12.62758,33.0814 28.13079,40.83964 14.92826,7.47052 32.198708,7.84939 46.668988,1.02378 12.07891,-5.6976 21.24974,-14.62199 26.81627,-26.09563 2.59415,-5.34701 3.9985,-9.85085 4.78049,-15.33138 0.61278,-4.29462 0.41412,-12.92277 -0.3819,-16.58605 -2.73216,-12.57354 -9.40041,-23.34246 -19.35854,-31.26316 C 129.7349,97.74943 119.74717,93.831612 108.50092,93.042519 80.143222,91.052805 55.864502,110.74705 52.085152,138.8055 c -0.46599,3.45952 -0.47586,9.86122 -0.0208,13.50381 z"
       id="path4626" /></g></svg>
